<?xml version="1.0" standalone="no"?>
<!DOCTYPE svg PUBLIC "-//W3C//DTD SVG 20010904//EN"
 "http://www.w3.org/TR/2001/REC-SVG-20010904/DTD/svg10.dtd">
<svg version="1.0" xmlns="http://www.w3.org/2000/svg"
 width="512.000000pt" height="512.000000pt" viewBox="0 0 512.000000 512.000000"
 preserveAspectRatio="xMidYMid meet">
<metadata>
Created by potrace 1.14, written by Peter Selinger 2001-2017
</metadata>
<g transform="translate(0.000000,512.000000) scale(0.100000,-0.100000)"
fill="#000000" stroke="none">
<path d="M1080 5105 c-476 -81 -865 -409 -1014 -855 -65 -195 -61 -98 -61
-1680 0 -1121 3 -1450 13 -1502 52 -277 167 -495 361 -689 185 -186 377 -290
651 -355 70 -17 176 -18 1485 -21 963 -3 1436 -1 1492 7 397 52 750 291 949
642 54 95 101 215 132 335 l27 108 0 1445 c0 1129 -3 1460 -13 1512 -52 277
-167 496 -361 689 -157 157 -301 246 -504 314 -200 67 -163 65 -1698 64 -1078
-1 -1401 -4 -1459 -14z m1727 -800 c757 -107 1350 -685 1489 -1450 23 -124 26
-440 5 -555 -67 -379 -221 -692 -467 -950 -158 -164 -291 -263 -484 -361 -122
-62 -172 -68 -234 -29 -70 42 -76 70 -76 351 0 136 -5 270 -10 300 -16 81 -63
173 -120 234 -29 29 -49 58 -46 63 3 5 38 12 78 15 251 22 471 153 608 364
167 254 170 595 10 851 l-40 64 11 84 c17 131 -17 340 -62 377 -27 22 -47 22
-133 -4 -87 -26 -175 -69 -241 -119 -48 -36 -53 -37 -100 -29 -28 4 -223 8
-435 8 -212 0 -407 -4 -435 -8 -47 -8 -51 -7 -100 30 -64 48 -181 103 -267
124 -59 15 -68 15 -95 1 -24 -12 -33 -27 -46 -73 -31 -111 -40 -206 -29 -303
l11 -90 -40 -64 c-91 -145 -133 -338 -111 -510 46 -369 332 -654 700 -698 53
-6 101 -15 106 -19 5 -5 -13 -32 -43 -63 -52 -56 -106 -153 -117 -214 l-6 -32
-72 0 c-154 0 -265 51 -386 177 -91 95 -154 131 -244 140 -49 5 -57 3 -80 -20
-53 -54 -25 -121 58 -136 62 -11 92 -34 140 -107 114 -170 294 -275 497 -291
l80 -6 -3 -162 c-3 -158 -4 -162 -30 -197 -35 -46 -102 -73 -154 -63 -20 3
-82 30 -138 59 -483 249 -810 682 -928 1226 -20 93 -22 133 -22 340 0 259 10
335 76 539 204 638 749 1101 1417 1206 116 18 382 18 508 0z"/>
</g>
</svg>
